<?xml version="1.0" encoding="UTF-8"?>
<svg id="a" data-name="Layer 1" xmlns="http://www.w3.org/2000/svg" viewBox="0 0 223.575 223.575">
  <circle cx="111.788" cy="111.788" r="106.788" fill="#91ff31" stroke="#000" stroke-miterlimit="10" stroke-width="10"/>
  <path d="M160.657,137.061s-9.87-2.627-48.87-2.627-48.87,2.627-48.87,2.627c0,0,2.256,48.109,48.109,48.109s49.631-48.109,49.631-48.109Z" fill="none" stroke="#000" stroke-linecap="round" stroke-linejoin="round" stroke-width="8.449"/>
  <path d="M86.44,81.661c0,6.999-5.681,12.674-12.674,12.674s-12.674-5.675-12.674-12.674,5.681-12.674,12.674-12.674,12.674,5.681,12.674,12.674" fill="#000" stroke-width="0"/>
  <path d="M162.483,81.661c0,6.999-5.681,12.674-12.674,12.674s-12.674-5.675-12.674-12.674,5.681-12.674,12.674-12.674,12.674,5.681,12.674,12.674" fill="#000" stroke-width="0"/>
</svg>