<?xml version="1.0" encoding="UTF-8"?>
<svg id="Layer_1" xmlns="http://www.w3.org/2000/svg" version="1.1" viewBox="0 0 426.5 259.8">
  <!-- Generator: Adobe Illustrator 29.0.1, SVG Export Plug-In . SVG Version: 2.1.0 Build 192)  -->
  <defs>
    <style>
      .st0 {
        fill: #005ead;
      }

      .st1 {
        fill: none;
        stroke: #1c1c1b;
        stroke-width: 5px;
      }

      .st2 {
        fill: #fff;
      }

      .st3 {
        fill: #eb6621;
      }
    </style>
  </defs>
  <g>
    <path d="M49,86.1h32.8c7.5,0,14.1,1,19.7,3,5.6,2,10,5.4,13.5,10.1,3.4,4.7,5.1,10.6,5.1,17.7v10.5c0,11-3.7,19-11.1,24-6.8,4.5-15.8,6.8-27.2,6.8h-32.8c-.8,0-1.4-.3-2-.8-.5-.5-.8-1.2-.8-2v-66.5c0-.8.3-1.4.8-2s1.2-.8,2-.8ZM73,106.1v31.9h9.4c3.2,0,5.8-.8,7.7-2.3,1.9-1.5,2.8-3.7,2.8-6.5v-14.2c0-2.8-.9-5-2.8-6.5-1.9-1.5-4.4-2.3-7.7-2.3h-9.4Z"/>
    <path d="M150.1,158.1h-19.4c-.6,0-1.1-.2-1.6-.7-.4-.4-.7-.9-.7-1.3s0-.7.1-.9l22.4-65.8c.6-2.3,2.2-3.4,4.6-3.4h28.6c2.5,0,4,1.1,4.6,3.4l22.4,65.8c0,.2.1.5.1.9s-.2.8-.7,1.3c-.4.4-1,.7-1.6.7h-19.4c-2.2,0-3.7-1.2-4.6-3.5l-2.6-7.2h-25.1l-2.6,7.2c-.9,2.3-2.4,3.5-4.6,3.5ZM177.2,127.3l-7.3-21.4-7.3,21.4h14.6Z"/>
    <path d="M221.6,86.1h71c.8,0,1.4.3,2,.8.5.5.8,1.2.8,2v16.6c0,.8-.3,1.4-.8,2-.6.5-1.2.8-2,.8h-22.1v47.1c0,.8-.3,1.4-.8,2-.6.5-1.2.8-2,.8h-21.2c-.8,0-1.4-.3-2-.8-.6-.5-.8-1.2-.8-2v-47.1h-22.1c-.8,0-1.4-.3-2-.8-.5-.5-.8-1.2-.8-2v-16.6c0-.8.3-1.4.8-2,.5-.5,1.2-.8,2-.8Z"/>
    <path d="M325.1,158.1h-19.4c-.6,0-1.1-.2-1.6-.7-.4-.4-.7-.9-.7-1.3s0-.7.1-.9l22.4-65.8c.6-2.3,2.2-3.4,4.6-3.4h28.6c2.5,0,4,1.1,4.6,3.4l22.4,65.8c0,.2.1.5.1.9s-.2.8-.7,1.3c-.4.4-1,.7-1.6.7h-19.4c-2.2,0-3.7-1.2-4.6-3.5l-2.6-7.2h-25.1l-2.6,7.2c-.9,2.3-2.4,3.5-4.6,3.5ZM352.1,127.3l-7.3-21.4-7.3,21.4h14.6Z"/>
    <path d="M76.6,211.8v12.2c0,9.8-3.3,17.2-10,22.3l7.6,10.3c.5,1,.5,1.7,0,2.3-.5.6-1.1.9-1.7.9h-19.7c-2.2,0-3.9-.9-5-2.6l-2.7-3.4c-2.2.2-4.5.3-6.8.3-7.5,0-14.1-1-19.7-2.9-5.6-1.9-10.1-5.2-13.5-9.8-3.4-4.6-5.1-10.4-5.1-17.5v-11.8c0-7,1.7-12.8,5.1-17.5,3.4-4.6,7.9-7.9,13.5-9.8s12.1-2.9,19.7-2.9,14.1,1,19.7,2.9c5.6,1.9,10,5.2,13.5,9.8,3.4,4.6,5.1,10.3,5.1,17.2ZM27.8,210.2v15.6c0,2.7.9,4.7,2.8,6.1,1.9,1.4,4.4,2.1,7.7,2.1s5.8-.7,7.7-2.2c1.9-1.5,2.8-3.5,2.8-6.2v-15.4c0-2.7-.9-4.7-2.8-6.2-1.9-1.5-4.4-2.2-7.7-2.2s-5.8.7-7.7,2.1c-1.9,1.4-2.8,3.5-2.8,6.1Z"/>
    <path d="M153.3,246.7c-6.8,4.9-15.9,7.4-27.4,7.4s-20.7-2.5-27.4-7.4c-6.8-4.9-10.1-12.7-10.1-23.2v-38.8c0-.7.3-1.4.8-1.9.5-.5,1.2-.8,2-.8h21.5c.8,0,1.4.3,2,.8.5.5.8,1.2.8,1.9v40.2c0,2.8.9,4.9,2.8,6.4,1.9,1.5,4.4,2.2,7.7,2.2s5.8-.7,7.7-2.2c1.9-1.5,2.8-3.6,2.8-6.4v-40.2c0-.7.3-1.4.8-1.9.5-.5,1.2-.8,2-.8h21.5c.8,0,1.4.3,2,.8.5.5.8,1.2.8,1.9v38.8c0,10.5-3.4,18.2-10.1,23.2Z"/>
    <path d="M205.6,233.9h41.1c.8,0,1.4.3,2,.8.5.5.8,1.2.8,2v14.5c0,.8-.3,1.4-.8,2-.5.5-1.2.8-2,.8h-65c-.8,0-1.4-.3-2-.8-.5-.5-.8-1.2-.8-2v-66.5c0-.8.3-1.4.8-2s1.2-.8,2-.8h64c.8,0,1.4.3,2,.8.5.5.8,1.2.8,2v14.5c0,.8-.3,1.4-.8,2-.5.5-1.2.8-2,.8h-40v6.5h34.4c.8,0,1.4.3,2,.8.5.5.8,1.2.8,2v13.4c0,.8-.3,1.4-.8,2-.5.6-1.2.8-2,.8h-34.4v6.5Z"/>
    <path d="M330.5,215.8c4.8,3.4,7.2,8.5,7.2,15.4s-3.5,12.4-10.4,16.6c-6.9,4.2-16.1,6.4-27.6,6.4s-20.4-2.1-26.7-6.3c-6.3-4.2-9.5-9.3-9.5-15.4s.8-2.2,2.4-2.2h21.1c1.4,0,2.6.4,3.5,1.3,1.9,1.8,5.2,2.6,10,2.6s9.8-1,9.8-2.9-1-2.1-3.1-2.8c-2.1-.7-6.1-1.4-12.2-2-19.4-2.3-29.1-9.4-29.1-21.6s3.1-12.3,9.4-16.5c6.2-4.2,14.6-6.3,25.1-6.3s18.9,2.3,25.4,6.8c6.4,4.5,9.7,9.3,9.7,14.3s-.2,1.2-.7,1.6c-.4.4-1,.6-1.8.6h-22.1c-1.2,0-2.3-.4-3.2-1.2-1.6-1.4-4.1-2.1-7.4-2.1s-6.9.9-6.9,2.8.9,1.8,2.7,2.3c1.8.6,5.4,1.1,10.7,1.7,11.3,1.3,19.3,3.6,24,7Z"/>
    <path d="M352.8,182h71c.8,0,1.4.3,2,.8.5.5.8,1.2.8,2v16.6c0,.8-.3,1.4-.8,2-.6.5-1.2.8-2,.8h-22.1v47.1c0,.8-.3,1.4-.8,2-.6.5-1.2.8-2,.8h-21.2c-.8,0-1.4-.3-2-.8-.6-.5-.8-1.2-.8-2v-47.1h-22.1c-.8,0-1.4-.3-2-.8-.5-.5-.8-1.2-.8-2v-16.6c0-.8.3-1.4.8-2,.5-.5,1.2-.8,2-.8Z"/>
  </g>
  <g id="bdabbf4e-a339-4a0b-8716-211f30d4cdb9">
    <g>
      <line class="st1" x1="72.7" y1="34" x2="352.7" y2="34"/>
      <g>
        <circle class="st3" cx="352.7" cy="34" r="15" transform="translate(262.6 376.7) rotate(-80.8)"/>
        <path class="st2" d="M355.1,26.4v15.1h-5v-15.1h5Z"/>
      </g>
      <g>
        <circle class="st3" cx="282.6" cy="34" r="24"/>
        <path class="st2" d="M283.3,21.9c1.5,0,3,.2,4.4.7,1.3.5,2.5,1.3,3.5,2.3,1,1.1,1.8,2.3,2.3,3.7.6,1.7.9,3.4.8,5.2,0,1.6-.2,3.3-.7,4.9-.4,1.4-1.1,2.7-2,3.9-.9,1.1-2.1,1.9-3.4,2.5-1.5.7-3.2,1-4.9.9h-10.4v-24.1h10.4ZM282.9,41.5c.8,0,1.5-.1,2.3-.4.7-.3,1.4-.7,1.9-1.3.6-.7,1.1-1.4,1.3-2.3.4-1.1.5-2.2.5-3.4,0-1.1,0-2.2-.4-3.3-.2-.9-.6-1.7-1.1-2.5-.6-.7-1.3-1.3-2.2-1.6-1-.4-2.1-.6-3.2-.6h-3.8v15.2h4.7Z"/>
      </g>
      <g>
        <circle class="st3" cx="212.7" cy="34" r="30"/>
        <path class="st2" d="M201.5,18.8h14.5c3.3,0,5.8.8,7.5,2.2,1.7,1.5,2.6,3.7,2.5,6,0,1.2-.2,2.5-.6,3.6-.6,1.5-1.7,2.7-3.1,3.5l-1.3.5h0c.5,0,1,.2,1.5.4.6.3,1.1.7,1.5,1.1.5.6.9,1.2,1.1,1.9.3,1,.5,2,.4,3,0,1.6.1,3.3.4,4.9.1,1.1.5,2.2,1.2,3.2h-5.6c-.4-.7-.7-1.4-.7-2.2,0-.8,0-1.6,0-2.3,0-1.2-.1-2.4-.3-3.6-.1-.9-.4-1.7-.9-2.5-.4-.7-1.1-1.2-1.8-1.5-1-.3-2-.5-3-.5h-7.8v12.5h-5.3v-30.3ZM206.8,32.5h8.7c1.7,0,3-.4,3.9-1.2s1.3-2,1.3-3.6c0-.8-.1-1.6-.4-2.3-.2-.6-.6-1.1-1.1-1.4-.5-.3-1.1-.6-1.7-.7-.7-.1-1.3-.2-2-.1h-8.6v9.4Z"/>
      </g>
      <g>
        <circle class="st0" cx="72.7" cy="34" r="30"/>
        <path class="st2" d="M58.3,18.8h2.7l11.8,28.1h.1l11.6-28.1h2.7v30.3h-1.8v-27.9h-.1l-11.5,27.9h-1.8l-11.6-27.9h0v27.9h-1.9v-30.3Z"/>
      </g>
      <g>
        <circle class="st0" cx="142.7" cy="34" r="15"/>
        <path class="st2" d="M137.3,28.9c.3-.6.8-1.2,1.3-1.6.6-.4,1.2-.7,1.9-.8.8-.2,1.6-.4,2.4-.4l2,.2c.6.1,1.2.4,1.8.7.5.4,1,.9,1.3,1.5.4.8.5,1.6.5,2.5v8c0,.5.3,1,.8,1.1,0,0,.2,0,.2,0h.6c0-.1,0,1.4,0,1.4h-1.2c-.4,0-.8,0-1.1-.1-.3-.1-.5-.3-.7-.6-.1-.3-.2-.5-.3-.8,0-.3,0-.7,0-1.1h0c-.3.5-.6.9-1,1.3-.3.4-.7.7-1.1.9-.4.3-.9.5-1.4.6-.6.1-1.3.2-1.9.2-.7,0-1.3,0-2-.2-.6-.2-1.1-.4-1.6-.8-.4-.4-.8-.9-1.1-1.4-.3-.6-.4-1.3-.4-2,0-.9.2-1.7.7-2.5.5-.6,1.1-1,1.8-1.3.8-.3,1.7-.5,2.6-.6l3-.4h1c.3-.2.5-.3.7-.5.2-.1.4-.3.5-.6,0-.3.1-.7.1-1,0-.5,0-1.1-.3-1.6-.2-.4-.5-.7-.8-.9-.4-.2-.8-.4-1.3-.5h-1.6c-1-.2-2,.1-2.8.7-.8.7-1.2,1.7-1.2,2.7h-1.8c0-.8.3-1.5.6-2.2ZM146.4,33.3c0,.2-.4.4-.6.5l-.9.2-2.4.4c-.8,0-1.5.3-2.3.5-.6.2-1.2.5-1.6.9-.5.4-.8,1-.7,1.7,0,.4.1.8.3,1.2.2.4.4.7.8.9.3.3.7.5,1.1.6.4.1.8.2,1.3.2.7,0,1.3-.1,2-.4.6-.2,1.2-.5,1.7-.9.5-.4.9-.9,1.1-1.5.3-.6.4-1.3.4-2v-2.4h0Z"/>
      </g>
    </g>
  </g>
</svg>